{
  "accessors": [
    {
      "bufferView": 1,
      "componentType": 5126,
      "count": 5616,
      "max": [
        26,
        1.5,
        1.5
      ],
      "min": [
        -2,
        -1.5,
        -1.5
      ],
      "type": "VEC3"
    },
    {
      "bufferView": 1,
      "byteOffset": 67392,
      "componentType": 5126,
      "count": 5616,
      "max": [
        1,
        1,
        1
      ],
      "min": [
        -1,
        -1,
        -1
      ],
      "type": "VEC3"
    },
    {
      "bufferView": 0,
      "componentType": 5125,
      "count": 33696,
      "max": [
        5615
      ],
      "min": [
        0
      ],
      "type": "SCALAR"
    },
    {
      "bufferView": 1,
      "byteOffset": 134784,
      "componentType": 5126,
      "count": 4338,
      "max": [
        25,
        1,
        1
      ],
      "min": [
        -1,
        -1,
        -1
      ],
      "type": "VEC3"
    },
    {
      "bufferView": 1,
      "byteOffset": 186840,
      "componentType": 5126,
      "count": 4338,
      "max": [
        1,
        1,
        1
      ],
      "min": [
        -1,
        -1,
        -1
      ],
      "type": "VEC3"
    },
    {
      "bufferView": 0,
      "byteOffset": 134784,
      "componentType": 5125,
      "count": 25920,
      "max": [
        4337
      ],
      "min": [
        0
      ],
      "type": "SCALAR"
    },
    {
      "bufferView": 1,
      "byteOffset": 238896,
      "componentType": 5126,
      "count": 2034,
      "max": [
        24.299999237060547,
        2.25,
        2.25
      ],
      "min": [
        -0.30000001192092896,
        -2.25,
        -2.25
      ],
      "type": "VEC3"
    },
    {
      "bufferView": 1,
      "byteOffset": 263304,
      "componentType": 5126,
      "count": 2034,
      "max": [
        1,
        1,
        1
      ],
      "min": [
        -1,
        -1,
        -1
      ],
      "type": "VEC3"
    },
    {
      "bufferView": 0,
      "byteOffset": 238464,
      "componentType": 5125,
      "count": 10368,
      "max": [
        2033
      ],
      "min": [
        0
      ],
      "type": "SCALAR"
    }
  ],
  "asset": {
    "extras": {
      "author": "ayvlasov (https://sketchfab.com/ayvlasov)",
      "license": "CC-BY-4.0 (http://creativecommons.org/licenses/by/4.0/)",
      "source": "https://sketchfab.com/models/7e9204e850b641d49267c945b2f7289e",
      "title": "Spin Chain"
    },
    "generator": "Sketchfab-3.19.8",
    "version": "2.0"
  },
  "bufferViews": [
    {
      "buffer": 0,
      "byteLength": 279936,
      "byteOffset": 0,
      "name": "floatBufferViews",
      "target": 34963
    },
    {
      "buffer": 0,
      "byteLength": 287712,
      "byteOffset": 279936,
      "byteStride": 12,
      "name": "floatBufferViews",
      "target": 34962
    }
  ],
  "buffers": [
    {
      "byteLength": 567648,
      "uri": "scene.bin"
    }
  ],
  "materials": [
    {
      "doubleSided": true,
      "emissiveFactor": [
        0,
        0,
        0
      ],
      "name": "MaterialLink",
      "pbrMetallicRoughness": {
        "baseColorFactor": [
          0.439081,
          0.32494099999999998,
          0.29401899999999997,
          1
        ],
        "metallicFactor": 0.97662478269999997,
        "roughnessFactor": 0.31624742420000002
      }
    },
    {
      "doubleSided": true,
      "emissiveFactor": [
        0,
        0,
        0
      ],
      "name": "MaterialSpin",
      "pbrMetallicRoughness": {
        "baseColorFactor": [
          0.64000000000000001,
          0.62741400000000003,
          0.11378000000000001,
          1
        ],
        "metallicFactor": 0.1024109463,
        "roughnessFactor": 0.27494754430000001
      }
    },
    {
      "doubleSided": true,
      "emissiveFactor": [
        0,
        0,
        0
      ],
      "name": "MaterialSpinArrow",
      "pbrMetallicRoughness": {
        "baseColorFactor": [
          0.68398300000000001,
          0.49573299999999998,
          0.090185000000000001,
          1
        ],
        "metallicFactor": 0.87599585189999996,
        "roughnessFactor": 0.15217371839999999
      }
    }
  ],
  "meshes": [
    {
      "primitives": [
        {
          "attributes": {
            "NORMAL": 1,
            "POSITION": 0
          },
          "indices": 2,
          "material": 0,
          "mode": 4
        }
      ]
    },
    {
      "primitives": [
        {
          "attributes": {
            "NORMAL": 4,
            "POSITION": 3
          },
          "indices": 5,
          "material": 1,
          "mode": 4
        }
      ]
    },
    {
      "primitives": [
        {
          "attributes": {
            "NORMAL": 7,
            "POSITION": 6
          },
          "indices": 8,
          "material": 2,
          "mode": 4
        }
      ]
    }
  ],
  "nodes": [
    {
      "children": [
        1
      ],
      "name": "RootNode (gltf orientation matrix)",
      "rotation": [
        -0.70710678118654746,
        -0,
        -0,
        0.70710678118654757
      ]
    },
    {
      "children": [
        2
      ],
      "name": "RootNode (model correction matrix)"
    },
    {
      "children": [
        3,
        4,
        5
      ],
      "name": "spinchain.obj.cleaner.materialmerger.gles"
    },
    {
      "mesh": 0,
      "name": ""
    },
    {
      "mesh": 1,
      "name": ""
    },
    {
      "mesh": 2,
      "name": ""
    }
  ],
  "scene": 0,
  "scenes": [
    {
      "name": "OSG_Scene",
      "nodes": [
        0
      ]
    }
  ]
}

